<?xml version="1.0" encoding="UTF-8"?>
<svg width="2038px" height="2038px" viewBox="0 0 2038 2038" version="1.1" xmlns="http://www.w3.org/2000/svg" xmlns:xlink="http://www.w3.org/1999/xlink">
    <!-- Generator: Sketch 55.2 (78181) - https://sketchapp.com -->
    <title>Artboard</title>
    <desc>Created with Sketch.</desc>
    <defs>
        <path d="M116.077275,1995.71106 C166.876487,1746.53516 222.569136,1606.52468 283.155224,1575.67961 L698.044542,1372.0049 C706.348979,1280.9352 731.330176,1230.98996 772.988134,1222.16916 C770.566353,1148.6524 765.021749,1096.3205 756.354323,1065.17346 C710.714558,991.764738 683.00955,939.592131 673.239298,908.655638 L667.161235,915.082071 L653.11119,915.082071 C630.960715,889.130426 614.536671,861.271497 603.839058,831.505285 L596.553842,819.968116 L594.171771,786.031463 L581.16619,759.204715 C566.674225,703.117557 561.698405,670.870732 566.238731,662.464239 L585.919874,662.464239 C547.864303,548.460366 528.836518,480.671558 528.836518,459.097816 C526.428993,443.507868 526.428993,432.073629 528.836518,424.795099 C531.440365,416.923041 538.957422,405.631399 551.387689,390.920173 L551.387689,348.796252 L585.919874,287.970896 C604.259599,229.196273 633.366073,186.328617 673.239298,159.367928 C745.344579,92.4616465 821.689014,54.9852085 902.272602,46.9386143 L915.479783,44.4952216 C915.265153,10.6017001 939.663866,-3.92843656 988.675922,0.904811652 C1068.67783,10.230536 1120.9477,31.895728 1145.48553,65.9003877 C1193.71036,73.1303004 1226.08965,93.3336025 1242.62341,126.510294 C1278.4476,203.133254 1281.50553,264.665015 1251.79721,311.105578 C1300.67244,325.751917 1328.09678,358.452873 1334.07021,409.208448 L1351.04513,576.911672 L1334.07021,607.916995 L1351.04513,607.916995 C1355.60304,615.870277 1357.88199,625.301173 1357.88199,636.209684 L1341.82407,728.008276 L1341.82407,779.077647 C1314.8951,810.02626 1302.44468,836.438063 1304.4728,858.313054 C1290.93395,875.981413 1277.74236,878.451454 1264.89804,865.723178 C1254.28855,921.641416 1243.56058,968.862689 1232.71412,1007.387 C1224.34325,1073.67485 1226.67262,1128.65911 1239.70224,1172.33978 C1286.63507,1183.37683 1315.38858,1195.33763 1325.96278,1208.22217 C1336.56596,1242.93508 1350.95186,1272.30715 1369.12046,1296.33839 C1405.2018,1325.04758 1442.14341,1346.79214 1479.9453,1361.57206 C1597.93031,1421.35715 1704.87286,1463.74672 1800.77294,1488.74077 C1881.68966,1553.27061 1926.90131,1612.46717 1936.40787,1666.33046 L2029.19897,2003.69908 L1726.88883,2409 L772.988134,2283.1085 L0.198974551,2283.1085 L116.077275,1995.71106 Z" id="path-1"></path>
    </defs>
    <g id="Artboard" stroke="none" stroke-width="1" fill="none" fill-rule="evenodd">
        <rect fill="#FFFFFF" x="0" y="0" width="2038" height="2038"></rect>
        <g id="Group" transform="translate(-15.198975, 42.000000)">
            <mask id="mask-2" fill="white">
                <use xlink:href="#path-1"></use>
            </mask>
            <use id="Path" fill="#FCD4CE" xlink:href="#path-1"></use>
            <path d="M772.152184,1222.62924 C777.391244,1271.16401 778.386389,1312.43876 775.13762,1346.45348 C772.49522,1368.98149 786.124893,1395.76219 816.02664,1426.79558 C881.885692,1479.36858 927.610978,1505.65508 953.202498,1505.65508 L959.848686,1512.25468 L1029.7187,1509.04633 C1111.02596,1462.34347 1166.08505,1436.09498 1194.89596,1430.30088 C1251.1198,1376.69644 1281.81384,1335.25045 1286.97807,1305.96289 C1296.53865,1274.44964 1282.98863,1246.67175 1246.32803,1222.62924 L1238.82132,1172.8211 C1238.18048,1161.07152 1238.86633,1144.37158 1240.87889,1122.72128 L1275.82574,1114 L2190.52148,1346.45348 L2226.19897,2508 L265.93366,2359.54728 L-613.801025,2474.7267 L-141.344961,1346.45348 L772.152184,1222.62924 Z" id="Path-3" fill="#000000" mask="url(#mask-2)"></path>
            <path d="M844.948762,1153.04268 C928.248239,1217.99436 1012.73488,1216.29152 1098.4087,1147.93415 L1174.19897,1116 L1093.34925,1188.0676 C1014.65542,1226.4373 947.028395,1237.15589 890.468177,1220.22335 L802.198975,1142.14137 L844.948762,1153.04268 Z" id="Path-4" fill-opacity="0.25" fill="#4F3328" mask="url(#mask-2)"></path>
            <path d="M664.198975,606 C672.483925,569.736417 691.277402,545.132724 720.579406,532.188921 C749.654998,523.265721 785.610957,521.635011 828.447283,527.296791 C852.080636,536.874515 867.664533,549.453731 875.198975,565.034438 L836.329726,570.482343 C793.585642,553.494212 757.295657,550.460966 727.459772,561.382605 C711.522226,569.377348 700.623071,575.025172 694.762309,578.326079 C686.609374,582.917985 676.421596,592.142625 664.198975,606 Z" id="Path-5" fill="#000000" mask="url(#mask-2)"></path>
            <path d="M995.198975,565 C1008.06711,535.934525 1029.17994,514.913971 1058.53745,501.938337 C1081.1826,494.003971 1113.96391,492.874639 1156.88139,498.550342 L1192.48005,512.636817 C1204.86601,519.708895 1213.07955,525.943313 1217.12067,531.340073 C1221.16179,536.736832 1224.52123,545.95766 1227.19897,559.002558 L1196.71756,565 C1179.14484,551.050139 1165.86612,542.435503 1156.88139,539.156091 C1153.84264,538.046954 1124.77156,528.874848 1094.93463,531.340073 C1060.28455,534.202975 1024.34681,548.914104 1022.94315,549.705116 C1014.77477,554.308314 1005.52671,559.406609 995.198975,565 Z" id="Path-5" fill="#000000" mask="url(#mask-2)" transform="translate(1111.198975, 530.000000) scale(-1, 1) translate(-1111.198975, -530.000000) "></path>
            <path d="M594.431967,669.169481 C607.417812,701.533608 616.327892,722.576206 621.162206,732.297274 L643.870251,815.473074 L652.412809,823 C638.593947,764.671168 632.844975,729.576392 635.165894,717.715672 L635.165894,562.363846 C645.549223,505.195033 654.74973,466.394439 662.767416,445.962063 C689.610338,377.555205 723.048826,343.722595 740.427159,326.186568 C786.042134,297.076046 821.08392,278.048029 845.552517,269.102518 C927.374999,239.188913 1006.67838,233.878369 1050.64438,243.190586 C1129.43566,260.264212 1179.17302,289.848203 1199.85647,331.94256 C1242.01411,414.800745 1265.70494,503.865606 1270.92895,599.137144 C1271.46505,704.096667 1270.21596,768.856358 1267.18168,793.416216 L1280.2133,767.541197 C1278.41698,721.889835 1285.81044,684.616962 1302.3937,655.722579 C1323.93784,617.41848 1340.36032,595.30579 1351.66113,589.384509 L1550.19897,438.403804 L1535.61463,106.175159 L1347.20633,-77.954234 L740.427159,-110 L331.101749,-40.1795901 L280.198975,456.122893 L594.431967,669.169481 Z" id="Path-2" fill="#000000" mask="url(#mask-2)"></path>
        </g>
        <text id="br001" font-family="AvenirNext-Italic, Avenir Next" font-size="50" font-style="italic" font-weight="normal" fill="#FFFFFF">
            <tspan x="1879.1" y="92">br001</tspan>
        </text>
    </g>
</svg>